<svg xmlns="http://www.w3.org/2000/svg" xmlns:vectornator="http://vectornator.io" xmlns:xlink="http://www.w3.org/1999/xlink" stroke-miterlimit="10" style="fill-rule:nonzero;clip-rule:evenodd;stroke-linecap:round;stroke-linejoin:round;" version="1.1" xml:space="preserve" viewBox="52 52 920 920">
<defs/>
<g id="Layer-2" vectornator:layerName="Layer 2">
<path d="M62 512C62 263.472 263.472 62 512 62C760.528 62 962 263.472 962 512C962 760.528 760.528 962 512 962C263.472 962 62 760.528 62 512Z" fill="#e0f7fd" fill-rule="nonzero" opacity="1" stroke="#565d6c" stroke-linecap="butt" stroke-linejoin="round" stroke-width="20" vectornator:layerName="Oval 1"/>
</g>
<g id="Layer-1" vectornator:layerName="Layer 1">
<path d="M475.831 299.779C467.935 286.509 501.611 230.93 516.991 229.229C530.26 227.762 530.693 278.189 532.373 285.88" fill="#c6ccd5" fill-rule="nonzero" opacity="1" stroke="none" vectornator:layerName="Curve 44"/>
<path d="M316.852 646.531C268.193 625.836 234.516 581.17 234.516 529.405C234.516 457.934 298.713 399.996 377.904 399.996C438.966 399.996 491.113 434.443 511.789 482.98" fill="#a9e0ff" fill-opacity="0.47" fill-rule="nonzero" opacity="1" stroke="#353942" stroke-linecap="butt" stroke-linejoin="round" stroke-width="25" vectornator:layerName="Oval 4"/>
<path d="M659.24 287.792C376.901 151.311 31.4832 827.626 253.277 731.832C311.968 706.484 402.363 673.317 491.592 708.906C609.769 756.04 702.635 702.735 768.884 626.608C826.55 560.344 868.511 388.953 659.24 287.792Z" fill="#c6ccd5" fill-rule="nonzero" opacity="1" stroke="none" vectornator:layerName="Curve 45"/>
<path d="M659.24 287.792C362.072 187.625 32.5857 827.017 256.327 735.864C475.604 646.531 499.183 745.541 641.867 718.993C780.63 693.175 936.466 381.237 659.24 287.792Z" fill="none" opacity="1" stroke="#565d6c" stroke-linecap="butt" stroke-linejoin="round" stroke-width="20" vectornator:layerName="Curve 46"/>
<path d="M482.295 522.648C482.295 491.086 501.854 465.5 525.981 465.5C550.108 465.5 569.667 491.086 569.667 522.648C569.667 554.21 550.108 579.795 525.981 579.795C501.854 579.795 482.295 554.21 482.295 522.648Z" fill="#000120" fill-rule="nonzero" opacity="1" stroke="#000120" stroke-linecap="butt" stroke-linejoin="round" stroke-width="20" vectornator:layerName="Oval 5"/>
<path d="M695.475 341.739C693.259 340.625 690.546 338.912 690.937 336.435C696.318 302.308 717.505 265.152 737.226 270.579C803.85 288.914 782.783 405.009 739.916 433.444" fill="#c6ccd5" fill-rule="nonzero" opacity="1" stroke="none" vectornator:layerName="Curve 47"/>
<path d="M635.47 491.702C639.624 504.37 641.867 517.871 641.867 531.882C641.867 565.85 628.686 596.818 607.035 620.198C582.26 646.951 546.395 663.767 506.498 663.767C431.736 663.767 371.129 604.72 371.129 531.882C371.129 459.043 431.736 399.996 506.498 399.996C566.879 399.996 618.026 438.512 635.47 491.702" fill="#a9e0ff" fill-opacity="0.473259" fill-rule="nonzero" opacity="1" stroke="none" vectornator:layerName="Oval 6"/>
<g opacity="1" vectornator:layerName="Curve 49">
<path d="M457.906 395.594C456.183 395.547 454.426 395.832 452.719 396.5C447.041 398.725 441.491 401.185 436.094 404.031C421.64 411.654 408.47 421.653 397.25 433.531C383.561 448.023 372.853 465.326 366.188 484.125C360.344 500.606 357.607 518.15 358.094 535.625C358.533 551.386 361.603 567.035 367.188 581.781C371.36 592.798 376.919 603.306 383.656 612.969C404.516 642.888 436.481 664.218 471.969 672.469C489.198 676.475 507.129 677.399 524.688 675.281C540.992 673.314 556.978 668.678 571.781 661.562C576.911 659.097 581.848 656.27 586.688 653.281C592.594 649.636 594.426 641.907 590.781 636C587.136 630.093 579.376 628.261 573.469 631.906C569.377 634.429 565.212 636.794 560.875 638.875C547.655 645.219 533.319 649.222 518.719 650.594C499.674 652.383 480.253 649.9 462.344 643.156C428.844 630.541 401.566 603.05 390.188 569C386.029 556.554 384.049 543.431 384.25 530.312C384.468 516.123 387.31 502.002 392.625 488.844C398.554 474.166 407.419 460.8 418.562 449.562C427.317 440.734 437.433 433.285 448.438 427.5C452.962 425.121 457.648 423.108 462.406 421.25C469.234 418.579 472.608 410.859 469.938 404.031C467.935 398.911 463.077 395.735 457.906 395.594Z" fill="#353942" stroke="none"/>
</g>
<g opacity="1" vectornator:layerName="Curve 48">
<path d="M521.469 388.375C515.64 388.822 510.759 393.318 510 399.344C509.133 406.23 513.988 412.508 520.875 413.375C524.924 413.889 528.975 414.49 532.969 415.344C541.619 417.194 550.046 420.018 558.094 423.688C581.456 434.339 601.211 452.68 613.75 475.062C617.487 481.733 620.456 488.734 622.906 495.969C625.271 502.908 632.811 506.646 639.75 504.281C646.689 501.916 650.396 494.345 648.031 487.406C643.896 475.352 638.436 463.877 631.375 453.25C614.053 427.182 588.07 407.313 558.719 396.625C547.488 392.535 535.879 389.917 524.031 388.438C523.17 388.329 522.301 388.311 521.469 388.375Z" fill="#353942" stroke="none"/>
</g>
<g opacity="1" vectornator:layerName="Oval 7">
<path d="M635.47 491.702C639.624 504.37 641.867 517.871 641.867 531.882C641.867 542.153 640.661 552.151 638.381 561.747" fill="#353942" fill-rule="nonzero" stroke="none"/>
<path d="M634.188 479.188C633.357 479.273 632.515 479.458 631.688 479.719C625.066 481.801 621.386 488.848 623.469 495.469C625.296 501.32 626.812 507.243 627.719 513.312C629.974 528.409 628.885 543.955 625.438 558.781C623.807 565.929 628.29 573.057 635.438 574.688C642.585 576.318 649.682 571.835 651.312 564.688C652.906 557.565 654.111 550.383 654.594 543.094C655.83 524.413 653.109 505.745 647.469 487.938C645.647 482.144 640.002 478.587 634.188 479.188Z" fill="#353942" stroke="none"/>
</g>
<g opacity="1" vectornator:layerName="Curve 50">
<path d="M299.281 462.75C293.432 462.736 287.535 463.02 281.781 464.125C271.461 466.107 261.479 470.106 252.406 475.375C242.242 481.278 231.783 489.438 227.188 500.594C224.565 507.02 227.636 514.347 234.062 516.969C240.489 519.591 247.847 516.52 250.469 510.094C251.645 507.142 254.362 504.776 256.75 502.812C261.526 498.886 267.045 495.829 272.719 493.406C277.457 491.383 282.429 489.83 287.531 489.062C291.959 488.396 296.503 488.379 300.969 488.562C310.802 488.968 320.455 491.187 329.219 495.75C335.614 499.08 341.448 503.374 347.031 507.906C352.29 512.174 357.383 516.662 362.531 521.062C368.113 525.815 376.497 525.145 381.25 519.562C386.003 513.98 385.332 505.596 379.75 500.844C366.547 489.647 353.52 477.74 337.562 470.562C325.518 465.145 312.442 462.782 299.281 462.75Z" fill="#353942" stroke="none"/>
</g>
<path d="M454.935 480.964L464.744 471.106L424.051 512L439.166 496.81L448.337 487.593" fill="none" opacity="0.998754" stroke="#e0f7fd" stroke-linecap="butt" stroke-linejoin="round" stroke-width="20" vectornator:layerName="Curve 51"/>
<path d="M460.037 475.836L464.744 471.106" fill="none" opacity="0.998754" stroke="#e0f7fd" stroke-linecap="butt" stroke-linejoin="round" stroke-width="20" vectornator:layerName="Line 3"/>
<path d="M432.001 560.959L440.247 552.819L454.199 539.043L432.001 560.959Z" fill="none" opacity="0.998754" stroke="#e0f7fd" stroke-linecap="butt" stroke-linejoin="round" stroke-width="20" vectornator:layerName="Line 4"/>
<path d="M412.391 351.649" fill="none" opacity="1" stroke="#565d6c" stroke-linecap="butt" stroke-linejoin="round" stroke-width="10" vectornator:layerName="Curve 52"/>
<path d="M404.28 348.593" fill="none" opacity="1" stroke="#565d6c" stroke-linecap="butt" stroke-linejoin="round" stroke-width="10" vectornator:layerName="Curve 53"/>
<path d="M501.543 491.553C501.543 485.806 506.225 481.147 512 481.147C517.775 481.147 522.457 485.806 522.457 491.553C522.457 497.3 517.775 501.959 512 501.959C506.225 501.959 501.543 497.3 501.543 491.553Z" fill="#e0f7fd" fill-rule="nonzero" opacity="1" stroke="#e0f7fd" stroke-linecap="butt" stroke-linejoin="round" stroke-width="7.81729" vectornator:layerName="Oval 13"/>
<path d="M476.583 451.505C476.583 448.632 478.853 446.302 481.654 446.302C484.455 446.302 486.726 448.632 486.726 451.505C486.726 454.379 484.455 456.708 481.654 456.708C478.853 456.708 476.583 454.379 476.583 451.505Z" fill="#e0f7fd" fill-rule="nonzero" opacity="1" stroke="#e0f7fd" stroke-linecap="butt" stroke-linejoin="round" stroke-width="7.81729" vectornator:layerName="Oval 14"/>
<path d="M479.935 400.384C479.935 395.094 484.244 390.806 489.559 390.806C494.874 390.806 499.183 395.094 499.183 400.384C499.183 405.674 494.874 409.963 489.559 409.963C484.244 409.963 479.935 405.674 479.935 400.384Z" fill="#353942" fill-rule="nonzero" opacity="1" stroke="#353942" stroke-linecap="butt" stroke-linejoin="round" stroke-width="7.81729" vectornator:layerName="Oval 15"/>
<path d="M595.438 621.803C595.438 616.556 599.747 612.302 605.062 612.302C610.377 612.302 614.686 616.556 614.686 621.803C614.686 627.049 610.377 631.303 605.062 631.303C599.747 631.303 595.438 627.049 595.438 621.803Z" fill="#353942" fill-rule="nonzero" opacity="1" stroke="#353942" stroke-linecap="butt" stroke-linejoin="round" stroke-width="7.81729" vectornator:layerName="Oval 16"/>
<path d="M616.222 593.48C616.222 588.041 620.531 583.632 625.846 583.632C631.161 583.632 635.47 588.041 635.47 593.48C635.47 598.92 631.161 603.329 625.846 603.329C620.531 603.329 616.222 598.92 616.222 593.48Z" fill="#353942" fill-rule="nonzero" opacity="1" stroke="#353942" stroke-linecap="butt" stroke-linejoin="round" stroke-width="7.81729" vectornator:layerName="Oval 12"/>
<g opacity="1" vectornator:layerName="Curve 54">
<path d="M515.688 218.812C513.212 219.004 510.806 219.676 508.531 220.656C505.365 222.02 502.501 224.029 499.906 226.281C492.622 232.604 487.137 240.885 482.375 249.188C476.835 258.845 472.148 269.076 468.406 279.562C467.682 281.594 466.978 283.626 466.344 285.688C465.907 287.108 465.5 288.531 465.125 289.969C463.274 297.065 461.347 306.944 468.281 312.062C468.983 312.581 469.745 312.998 470.531 313.375C475.611 315.618 481.539 313.298 483.781 308.219C485.005 305.447 484.788 302.48 483.594 299.938C483.612 299.788 483.631 299.634 483.656 299.469C483.829 298.334 484.071 297.24 484.344 296.125C485.037 293.296 485.912 290.498 486.875 287.75C489.755 279.528 493.361 271.522 497.531 263.875C499.864 259.598 502.389 255.406 505.219 251.438C506.569 249.543 507.967 247.689 509.5 245.938C511.079 244.133 512.787 242.361 514.75 240.969C515.25 240.614 515.793 240.3 516.344 240.031C516.501 239.954 516.696 239.879 516.875 239.812C516.954 239.875 517.034 239.938 517.062 239.969C517.401 240.333 517.692 240.743 517.969 241.156C518.918 242.576 519.652 244.137 520.281 245.719C522.211 250.57 523.358 255.751 524.281 260.875C525.311 266.59 525.983 272.346 526.531 278.125C527.095 283.963 532.287 288.251 538.125 287.688C543.963 287.124 548.22 281.932 547.656 276.094C546.661 265.962 545.339 255.763 542.594 245.938C539.496 234.852 533.447 221.237 520.688 219.062C519.032 218.78 517.364 218.683 515.688 218.812ZM517.156 239.688C517.166 239.685 517.178 239.69 517.188 239.688C517.216 239.725 517.359 239.722 517.312 239.719C517.258 239.715 517.21 239.694 517.156 239.688Z" fill="#565d6c" stroke="none"/>
</g>
<g opacity="1" vectornator:layerName="Curve 55">
<path d="M743.094 264.688C733.095 263.975 723.264 270.752 716 276.906C709.651 282.285 703.926 288.36 698.5 294.656C691.653 302.6 685.303 310.986 679.406 319.656C675.053 326.057 670.899 332.628 667.156 339.406C664.327 344.529 661.697 349.778 659.688 355.281C657.783 360.497 660.472 366.283 665.688 368.188C670.903 370.092 676.689 367.403 678.594 362.188C680.809 356.124 683.953 350.395 687.219 344.844C690.724 338.885 694.532 333.108 698.531 327.469C703.588 320.339 708.942 313.406 714.719 306.844C720.288 300.518 726.269 294.287 733.156 289.375C735.002 288.058 736.94 286.83 739.031 285.938C739.788 285.614 740.681 285.239 741.531 285.219C742.425 285.629 743.259 286.069 744.062 286.656C747.337 289.05 749.534 292.712 751.188 296.344C752.559 299.356 753.592 302.491 754.438 305.688C755.712 310.504 756.566 315.435 757.188 320.375C758.329 329.45 758.69 338.61 758.719 347.75C758.759 360.962 758.072 374.169 757.125 387.344C756.498 396.06 755.674 404.774 755.188 413.5C754.867 419.356 759.363 424.367 765.219 424.688C771.075 425.008 776.085 420.512 776.406 414.656C776.929 404.958 777.854 395.284 778.5 385.594C779.883 364.856 780.695 343.907 778.594 323.188C777.641 313.788 776.086 304.359 773.094 295.375C771.191 289.664 768.679 284.114 765.188 279.188C762.992 276.09 760.424 273.259 757.438 270.906C754.467 268.567 751.041 266.566 747.406 265.469C745.978 265.038 744.522 264.789 743.094 264.688Z" fill="#565d6c" stroke="none"/>
</g>
<path d="M475.831 299.779C467.935 286.509 501.611 230.93 516.991 229.229C530.26 227.762 530.693 278.189 532.373 285.88" fill="#c6ccd5" fill-rule="nonzero" opacity="1" stroke="none" vectornator:layerName="Curve 56"/>
<path d="M316.852 646.531C268.193 625.836 234.516 581.17 234.516 529.405C234.516 457.934 298.713 399.996 377.904 399.996C438.966 399.996 491.113 434.443 511.789 482.98" fill="#a9e0ff" fill-opacity="0.47" fill-rule="nonzero" opacity="1" stroke="#353942" stroke-linecap="butt" stroke-linejoin="round" stroke-width="25" vectornator:layerName="Oval 17"/>
<path d="M659.24 287.792C376.901 151.311 31.4832 827.626 253.277 731.832C311.968 706.484 402.363 673.317 491.592 708.906C609.769 756.04 702.635 702.735 768.884 626.608C826.55 560.344 868.511 388.953 659.24 287.792Z" fill="#c6ccd5" fill-rule="nonzero" opacity="1" stroke="none" vectornator:layerName="Curve 57"/>
<path d="M659.24 287.792C362.072 187.625 32.5857 827.017 256.327 735.864C475.604 646.531 499.183 745.541 641.867 718.993C780.63 693.175 936.466 381.237 659.24 287.792Z" fill="none" opacity="1" stroke="#565d6c" stroke-linecap="butt" stroke-linejoin="round" stroke-width="20" vectornator:layerName="Curve 58"/>
<path d="M482.295 522.648C482.295 491.086 501.854 465.5 525.981 465.5C550.108 465.5 569.667 491.086 569.667 522.648C569.667 554.21 550.108 579.795 525.981 579.795C501.854 579.795 482.295 554.21 482.295 522.648Z" fill="#000120" fill-rule="nonzero" opacity="1" stroke="#000120" stroke-linecap="butt" stroke-linejoin="round" stroke-width="20" vectornator:layerName="Oval 18"/>
<path d="M695.475 341.739C693.259 340.625 690.546 338.912 690.937 336.435C696.318 302.308 717.505 265.152 737.226 270.579C803.85 288.914 782.783 405.009 739.916 433.444" fill="#c6ccd5" fill-rule="nonzero" opacity="1" stroke="none" vectornator:layerName="Curve 59"/>
<path d="M635.47 491.702C639.624 504.37 641.867 517.871 641.867 531.882C641.867 565.85 628.686 596.818 607.035 620.198C582.26 646.951 546.395 663.767 506.498 663.767C431.736 663.767 371.129 604.72 371.129 531.882C371.129 459.043 431.736 399.996 506.498 399.996C566.879 399.996 618.026 438.512 635.47 491.702" fill="#a9e0ff" fill-opacity="0.473259" fill-rule="nonzero" opacity="1" stroke="none" vectornator:layerName="Oval 19"/>
<g opacity="1" vectornator:layerName="Curve 60">
<path d="M457.906 395.594C456.183 395.547 454.426 395.832 452.719 396.5C447.041 398.725 441.491 401.185 436.094 404.031C421.64 411.654 408.47 421.653 397.25 433.531C383.561 448.023 372.853 465.326 366.188 484.125C360.344 500.606 357.607 518.15 358.094 535.625C358.533 551.386 361.603 567.035 367.188 581.781C371.36 592.798 376.919 603.306 383.656 612.969C404.516 642.888 436.481 664.218 471.969 672.469C489.198 676.475 507.129 677.399 524.688 675.281C540.992 673.314 556.978 668.678 571.781 661.562C576.911 659.097 581.848 656.27 586.688 653.281C592.594 649.636 594.426 641.907 590.781 636C587.136 630.093 579.376 628.261 573.469 631.906C569.377 634.429 565.212 636.794 560.875 638.875C547.655 645.219 533.319 649.222 518.719 650.594C499.674 652.383 480.253 649.9 462.344 643.156C428.844 630.541 401.566 603.05 390.188 569C386.029 556.554 384.049 543.431 384.25 530.312C384.468 516.123 387.31 502.002 392.625 488.844C398.554 474.166 407.419 460.8 418.562 449.562C427.317 440.734 437.433 433.285 448.438 427.5C452.962 425.121 457.648 423.108 462.406 421.25C469.234 418.579 472.608 410.859 469.938 404.031C467.935 398.911 463.077 395.735 457.906 395.594Z" fill="#353942" stroke="none"/>
</g>
<g opacity="1" vectornator:layerName="Curve 61">
<path d="M521.469 388.375C515.64 388.822 510.759 393.318 510 399.344C509.133 406.23 513.988 412.508 520.875 413.375C524.924 413.889 528.975 414.49 532.969 415.344C541.619 417.194 550.046 420.018 558.094 423.688C581.456 434.339 601.211 452.68 613.75 475.062C617.487 481.733 620.456 488.734 622.906 495.969C625.271 502.908 632.811 506.646 639.75 504.281C646.689 501.916 650.396 494.345 648.031 487.406C643.896 475.352 638.436 463.877 631.375 453.25C614.053 427.182 588.07 407.313 558.719 396.625C547.488 392.535 535.879 389.917 524.031 388.438C523.17 388.329 522.301 388.311 521.469 388.375Z" fill="#353942" stroke="none"/>
</g>
<g opacity="1" vectornator:layerName="Oval 20">
<path d="M635.47 491.702C639.624 504.37 641.867 517.871 641.867 531.882C641.867 542.153 640.661 552.151 638.381 561.747" fill="#353942" fill-rule="nonzero" stroke="none"/>
<path d="M634.188 479.188C633.357 479.273 632.515 479.458 631.688 479.719C625.066 481.801 621.386 488.848 623.469 495.469C625.296 501.32 626.812 507.243 627.719 513.312C629.974 528.409 628.885 543.955 625.438 558.781C623.807 565.929 628.29 573.057 635.438 574.688C642.585 576.318 649.682 571.835 651.312 564.688C652.906 557.565 654.111 550.383 654.594 543.094C655.83 524.413 653.109 505.745 647.469 487.938C645.647 482.144 640.002 478.587 634.188 479.188Z" fill="#353942" stroke="none"/>
</g>
<g opacity="1" vectornator:layerName="Curve 62">
<path d="M299.281 462.75C293.432 462.736 287.535 463.02 281.781 464.125C271.461 466.107 261.479 470.106 252.406 475.375C242.242 481.278 231.783 489.438 227.188 500.594C224.565 507.02 227.636 514.347 234.062 516.969C240.489 519.591 247.847 516.52 250.469 510.094C251.645 507.142 254.362 504.776 256.75 502.812C261.526 498.886 267.045 495.829 272.719 493.406C277.457 491.383 282.429 489.83 287.531 489.062C291.959 488.396 296.503 488.379 300.969 488.562C310.802 488.968 320.455 491.187 329.219 495.75C335.614 499.08 341.448 503.374 347.031 507.906C352.29 512.174 357.383 516.662 362.531 521.062C368.113 525.815 376.497 525.145 381.25 519.562C386.003 513.98 385.332 505.596 379.75 500.844C366.547 489.647 353.52 477.74 337.562 470.562C325.518 465.145 312.442 462.782 299.281 462.75Z" fill="#353942" stroke="none"/>
</g>
<path d="M454.935 480.964L464.744 471.106L424.051 512L439.166 496.81L448.337 487.593" fill="none" opacity="0.998754" stroke="#e0f7fd" stroke-linecap="butt" stroke-linejoin="round" stroke-width="20" vectornator:layerName="Curve 63"/>
<path d="M460.037 475.836L464.744 471.106" fill="none" opacity="0.998754" stroke="#e0f7fd" stroke-linecap="butt" stroke-linejoin="round" stroke-width="20" vectornator:layerName="Line 5"/>
<path d="M432.001 560.959L440.247 552.819L454.199 539.043L432.001 560.959Z" fill="none" opacity="0.998754" stroke="#e0f7fd" stroke-linecap="butt" stroke-linejoin="round" stroke-width="20" vectornator:layerName="Line 6"/>
<path d="M412.391 351.649" fill="none" opacity="1" stroke="#565d6c" stroke-linecap="butt" stroke-linejoin="round" stroke-width="10" vectornator:layerName="Curve 64"/>
<path d="M404.28 348.593" fill="none" opacity="1" stroke="#565d6c" stroke-linecap="butt" stroke-linejoin="round" stroke-width="10" vectornator:layerName="Curve 65"/>
<path d="M501.543 491.553C501.543 485.806 506.225 481.147 512 481.147C517.775 481.147 522.457 485.806 522.457 491.553C522.457 497.3 517.775 501.959 512 501.959C506.225 501.959 501.543 497.3 501.543 491.553Z" fill="#e0f7fd" fill-rule="nonzero" opacity="1" stroke="#e0f7fd" stroke-linecap="butt" stroke-linejoin="round" stroke-width="7.81729" vectornator:layerName="Oval 21"/>
<path d="M476.583 451.505C476.583 448.632 478.853 446.302 481.654 446.302C484.455 446.302 486.726 448.632 486.726 451.505C486.726 454.379 484.455 456.708 481.654 456.708C478.853 456.708 476.583 454.379 476.583 451.505Z" fill="#e0f7fd" fill-rule="nonzero" opacity="1" stroke="#e0f7fd" stroke-linecap="butt" stroke-linejoin="round" stroke-width="7.81729" vectornator:layerName="Oval 22"/>
<path d="M479.935 400.384C479.935 395.094 484.244 390.806 489.559 390.806C494.874 390.806 499.183 395.094 499.183 400.384C499.183 405.674 494.874 409.963 489.559 409.963C484.244 409.963 479.935 405.674 479.935 400.384Z" fill="#353942" fill-rule="nonzero" opacity="1" stroke="#353942" stroke-linecap="butt" stroke-linejoin="round" stroke-width="7.81729" vectornator:layerName="Oval 23"/>
<path d="M595.438 621.803C595.438 616.556 599.747 612.302 605.062 612.302C610.377 612.302 614.686 616.556 614.686 621.803C614.686 627.049 610.377 631.303 605.062 631.303C599.747 631.303 595.438 627.049 595.438 621.803Z" fill="#353942" fill-rule="nonzero" opacity="1" stroke="#353942" stroke-linecap="butt" stroke-linejoin="round" stroke-width="7.81729" vectornator:layerName="Oval 24"/>
<path d="M616.222 593.48C616.222 588.041 620.531 583.632 625.846 583.632C631.161 583.632 635.47 588.041 635.47 593.48C635.47 598.92 631.161 603.329 625.846 603.329C620.531 603.329 616.222 598.92 616.222 593.48Z" fill="#353942" fill-rule="nonzero" opacity="1" stroke="#353942" stroke-linecap="butt" stroke-linejoin="round" stroke-width="7.81729" vectornator:layerName="Oval 25"/>
<g opacity="1" vectornator:layerName="Curve 66">
<path d="M515.688 218.812C513.212 219.004 510.806 219.676 508.531 220.656C505.365 222.02 502.501 224.029 499.906 226.281C492.622 232.604 487.137 240.885 482.375 249.188C476.835 258.845 472.148 269.076 468.406 279.562C467.682 281.594 466.978 283.626 466.344 285.688C465.907 287.108 465.5 288.531 465.125 289.969C463.274 297.065 461.347 306.944 468.281 312.062C468.983 312.581 469.745 312.998 470.531 313.375C475.611 315.618 481.539 313.298 483.781 308.219C485.005 305.447 484.788 302.48 483.594 299.938C483.612 299.788 483.631 299.634 483.656 299.469C483.829 298.334 484.071 297.24 484.344 296.125C485.037 293.296 485.912 290.498 486.875 287.75C489.755 279.528 493.361 271.522 497.531 263.875C499.864 259.598 502.389 255.406 505.219 251.438C506.569 249.543 507.967 247.689 509.5 245.938C511.079 244.133 512.787 242.361 514.75 240.969C515.25 240.614 515.793 240.3 516.344 240.031C516.501 239.954 516.696 239.879 516.875 239.812C516.954 239.875 517.034 239.938 517.062 239.969C517.401 240.333 517.692 240.743 517.969 241.156C518.918 242.576 519.652 244.137 520.281 245.719C522.211 250.57 523.358 255.751 524.281 260.875C525.311 266.59 525.983 272.346 526.531 278.125C527.095 283.963 532.287 288.251 538.125 287.688C543.963 287.124 548.22 281.932 547.656 276.094C546.661 265.962 545.339 255.763 542.594 245.938C539.496 234.852 533.447 221.237 520.688 219.062C519.032 218.78 517.364 218.683 515.688 218.812ZM517.156 239.688C517.166 239.685 517.178 239.69 517.188 239.688C517.216 239.725 517.359 239.722 517.312 239.719C517.258 239.715 517.21 239.694 517.156 239.688Z" fill="#565d6c" stroke="none"/>
</g>
<g opacity="1" vectornator:layerName="Curve 67">
<path d="M743.094 264.688C733.095 263.975 723.264 270.752 716 276.906C709.651 282.285 703.926 288.36 698.5 294.656C691.653 302.6 685.303 310.986 679.406 319.656C675.053 326.057 670.899 332.628 667.156 339.406C664.327 344.529 661.697 349.778 659.688 355.281C657.783 360.497 660.472 366.283 665.688 368.188C670.903 370.092 676.689 367.403 678.594 362.188C680.809 356.124 683.953 350.395 687.219 344.844C690.724 338.885 694.532 333.108 698.531 327.469C703.588 320.339 708.942 313.406 714.719 306.844C720.288 300.518 726.269 294.287 733.156 289.375C735.002 288.058 736.94 286.83 739.031 285.938C739.788 285.614 740.681 285.239 741.531 285.219C742.425 285.629 743.259 286.069 744.062 286.656C747.337 289.05 749.534 292.712 751.188 296.344C752.559 299.356 753.592 302.491 754.438 305.688C755.712 310.504 756.566 315.435 757.188 320.375C758.329 329.45 758.69 338.61 758.719 347.75C758.759 360.962 758.072 374.169 757.125 387.344C756.498 396.06 755.674 404.774 755.188 413.5C754.867 419.356 759.363 424.367 765.219 424.688C771.075 425.008 776.085 420.512 776.406 414.656C776.929 404.958 777.854 395.284 778.5 385.594C779.883 364.856 780.695 343.907 778.594 323.188C777.641 313.788 776.086 304.359 773.094 295.375C771.191 289.664 768.679 284.114 765.188 279.188C762.992 276.09 760.424 273.259 757.438 270.906C754.467 268.567 751.041 266.566 747.406 265.469C745.978 265.038 744.522 264.789 743.094 264.688Z" fill="#565d6c" stroke="none"/>
</g>
</g>
</svg>