<?xml version="1.0" encoding="UTF-8" standalone="no"?>
<!DOCTYPE svg PUBLIC "-//W3C//DTD SVG 1.1//EN" "http://www.w3.org/Graphics/SVG/1.1/DTD/svg11.dtd">
<!-- Created with Vectornator (http://vectornator.io/) -->
<svg height="100%" stroke-miterlimit="10" style="fill-rule:nonzero;clip-rule:evenodd;stroke-linecap:round;stroke-linejoin:round;" version="1.1" viewBox="0 0 1024 1024" width="100%" xml:space="preserve" xmlns="http://www.w3.org/2000/svg" xmlns:vectornator="http://vectornator.io" xmlns:xlink="http://www.w3.org/1999/xlink">
<defs/>
<g id="Layer-1" vectornator:layerName="Layer 1">
<path d="M488.648 324.785C480.752 311.515 514.428 255.936 529.808 254.235C543.077 252.768 543.51 303.195 545.19 310.886" fill="#c6ccd5" fill-rule="nonzero" opacity="1" stroke="#000120" stroke-linecap="butt" stroke-linejoin="round" stroke-width="102.591" vectornator:layerName="Curve 56"/>
<path d="M329.669 671.537C281.01 650.842 247.333 606.176 247.333 554.411C247.333 482.941 311.53 425.002 390.721 425.002C451.783 425.002 503.93 459.45 524.606 507.986" fill="#a9e0ff" fill-opacity="0.47" fill-rule="nonzero" opacity="1" stroke="#000120" stroke-linecap="butt" stroke-linejoin="round" stroke-width="102.591" vectornator:layerName="Oval 17"/>
<path d="M672.057 312.798C389.718 176.317 44.3001 852.632 266.094 756.839C324.785 731.49 415.18 698.323 504.409 733.912C622.586 781.046 715.452 727.741 781.701 651.614C839.367 585.35 881.328 413.959 672.057 312.798Z" fill="#c6ccd5" fill-rule="nonzero" opacity="1" stroke="#000120" stroke-linecap="butt" stroke-linejoin="round" stroke-width="102.591" vectornator:layerName="Curve 57"/>
<path d="M672.057 312.798C374.889 212.631 45.4027 852.023 269.144 760.87C488.421 671.537 512 770.547 654.684 743.999C793.447 718.182 949.283 406.244 672.057 312.798Z" fill="#353942" fill-rule="nonzero" opacity="1" stroke="#000120" stroke-linecap="butt" stroke-linejoin="round" stroke-width="102.591" vectornator:layerName="Curve 58"/>
<path d="M495.112 547.654C495.112 516.092 514.671 490.506 538.798 490.506C562.925 490.506 582.484 516.092 582.484 547.654C582.484 579.216 562.925 604.802 538.798 604.802C514.671 604.802 495.112 579.216 495.112 547.654Z" fill="#000120" fill-rule="nonzero" opacity="1" stroke="#000120" stroke-linecap="butt" stroke-linejoin="round" stroke-width="102.591" vectornator:layerName="Oval 18"/>
<path d="M708.292 366.745C706.076 365.631 703.363 363.919 703.754 361.442C709.135 327.314 730.322 290.158 750.043 295.585C816.667 313.92 795.6 430.015 752.733 458.451" fill="#c6ccd5" fill-rule="nonzero" opacity="1" stroke="#000120" stroke-linecap="butt" stroke-linejoin="round" stroke-width="102.591" vectornator:layerName="Curve 59"/>
<g opacity="1" vectornator:layerName="Oval 19">
<path d="M648.287 516.708C652.441 529.376 654.684 542.877 654.684 556.888C654.684 590.856 641.503 621.825 619.852 645.204C595.077 671.957 559.212 688.773 519.315 688.773C444.553 688.773 383.946 629.726 383.946 556.888C383.946 484.049 444.553 425.002 519.315 425.002C579.696 425.002 630.843 463.518 648.287 516.708" fill="#a9e0ff" fill-opacity="0.473259" fill-rule="nonzero" stroke="none"/>
<path d="M511.312 370.938C499.198 371.448 487.11 373.101 475.312 375.875C420.891 388.673 373.81 425.617 349.188 475.906C339.229 496.246 333.118 518.43 331.25 541C329.519 561.919 331.395 583.133 336.844 603.406C341.57 620.992 348.984 637.843 358.688 653.25C368.22 668.386 379.963 682.14 393.406 693.938C410.695 709.11 430.769 721.055 452.344 729.031C499.653 746.522 553.413 744.411 599.156 723.125C625.423 710.902 648.779 692.551 666.781 669.844C689.071 641.727 702.802 607.331 705.688 571.562C706.983 555.5 706.137 539.274 703.156 523.438C703.008 522.648 702.753 521.881 702.594 521.094C703.172 513.97 702.352 506.612 699.938 499.406C698.711 500.322 698.911 500.9 698.719 500.312C698.409 499.367 699.304 498.368 699.25 497.375C699.205 496.54 698.721 495.818 698.438 495.031C697.599 492.699 696.714 490.359 695.781 488.062C692.697 480.468 689.098 473.117 685.031 466C666.895 434.264 639.419 408.329 606.906 391.688C588.347 382.188 568.188 375.823 547.562 372.812C535.573 371.062 523.427 370.427 511.312 370.938ZM516.594 479.281C536.132 478.733 555.761 484.867 571.344 497.469C580.066 504.522 587.344 513.415 592.344 523.469C593.536 525.866 594.6 528.333 595.531 530.844C595.649 531.162 595.761 531.462 595.875 531.781C595.985 532.09 595.893 532.679 596.219 532.719C597.189 532.838 596.194 532.703 596.625 534C598.038 538.218 599.982 542.114 602.25 545.719C603.752 556.187 603.156 566.951 600.375 577.156C598.738 583.164 596.376 588.966 593.344 594.406C579.344 619.524 552.539 635.265 524 636.625C513.051 637.147 502.004 635.561 491.656 631.938C471.843 625 454.758 610.577 445.312 591.75C442.649 586.441 440.609 580.814 439.25 575.031C437.548 567.789 436.947 560.298 437.406 552.875C437.909 544.763 439.721 536.748 442.781 529.219C446.266 520.644 451.336 512.692 457.594 505.875C464.592 498.252 473.075 492.004 482.406 487.531C493.187 482.364 504.871 479.61 516.594 479.281Z" fill="#000120" stroke="none"/>
</g>
<g opacity="1" vectornator:layerName="Curve 60">
<path d="M592.895 667.607C571.712 680.997 546.446 688.773 519.315 688.773C444.553 688.773 383.946 629.726 383.946 556.888C383.946 500.861 419.805 452.994 470.382 433.882" fill="#353942" fill-rule="nonzero" stroke="none"/>
<path d="M471.844 379.406C464.77 379.213 457.536 380.416 450.531 383.156C443.429 385.957 436.47 389.022 429.719 392.594C411.295 402.342 394.508 415.14 380.219 430.312C362.664 448.951 348.92 471.229 340.438 495.406C332.992 516.628 329.563 539.216 330.281 561.688C330.928 581.941 335.028 602.059 342.312 620.969C348.092 635.972 355.868 650.199 365.344 663.188C393.891 702.318 437.28 729.013 484.906 737.531C506.725 741.434 529.214 741.48 551.062 737.781C568.505 734.828 585.561 729.425 601.5 721.75C607.859 718.688 613.97 715.213 619.969 711.5C644.208 696.542 651.739 664.771 636.781 640.531C621.823 616.292 590.052 608.761 565.812 623.719C562.882 625.521 559.919 627.235 556.812 628.719C547.741 633.052 537.835 635.815 527.812 636.688C513.339 637.948 498.48 635.677 485.188 629.75C465.003 620.749 448.627 603.291 441.594 582.281C438.863 574.124 437.604 565.503 437.719 556.906C437.846 547.372 439.786 537.931 443.438 529.125C447.419 519.524 453.217 510.825 460.562 503.469C466.387 497.636 473.127 492.744 480.438 488.938C483.609 487.286 486.888 485.917 490.219 484.625C518.236 473.666 532.084 442.049 521.125 414.031C512.906 393.018 493.064 379.985 471.844 379.406Z" fill="#000120" stroke="none"/>
</g>
<g opacity="1" vectornator:layerName="Curve 61">
<path d="M535.274 425.909C588.574 432.008 632.403 468.274 648.287 516.708" fill="#353942" fill-rule="nonzero" stroke="none"/>
<path d="M536.438 374.344C510.305 373.716 487.429 392.975 484.094 419.469C480.536 447.729 500.584 473.536 528.844 477.094C538.472 478.344 547.882 480.826 556.5 485.406C568.59 491.832 578.911 501.716 586.438 513.094C588.653 516.442 590.717 519.851 592.469 523.469C594.165 526.972 595.494 530.592 596.719 534.281C606.425 562.757 637.399 577.987 665.875 568.281C694.351 558.575 709.55 527.601 699.844 499.125C693.999 482.413 686.184 466.435 675.875 452C652.728 419.589 618.571 395.82 580.875 383.406C568.133 379.21 555.028 376.373 541.719 374.75C539.952 374.528 538.18 374.386 536.438 374.344Z" fill="#000120" stroke="none"/>
</g>
<g opacity="1" vectornator:layerName="Oval 20">
<path d="M648.287 516.708C652.441 529.376 654.684 542.877 654.684 556.888C654.684 567.16 653.478 577.157 651.198 586.754" fill="#353942" fill-rule="nonzero" stroke="none"/>
<path d="M648.125 465.125C643.051 465.141 637.907 465.898 632.812 467.5C605.641 476.045 590.548 505.016 599.094 532.188C600.335 536.254 601.327 540.317 601.719 544.562C601.874 546.247 601.783 547.938 601.75 549.625C601.688 552.823 601.345 555.986 600.938 559.156C600.267 564.377 599.352 569.515 598.094 574.625C591.403 603.956 609.763 633.184 639.094 639.875C668.425 646.566 697.622 628.206 704.312 598.875C706.223 589.785 707.779 580.579 708.156 571.281C708.714 557.53 707.416 543.844 704.812 530.344C702.912 520.491 700.561 510.802 697.469 501.25C690.526 479.173 670.111 465.055 648.125 465.125Z" fill="#000120" stroke="none"/>
</g>
<g opacity="1" vectornator:layerName="Curve 62">
<path d="M251.639 530.353C256.441 517.627 282.5 502.111 303.686 500.842C343.163 498.477 359.798 515.489 383.946 535.955" fill="#353942" fill-rule="nonzero" stroke="none"/>
<path d="M309.156 447.844C301.859 448.084 294.568 448.73 287.406 450.188C281.009 451.49 274.755 453.388 268.625 455.625C259.24 459.051 250.214 463.484 241.781 468.844C229.138 476.88 217.463 487.023 209.5 499.844C207.311 503.368 205.469 507.049 203.875 510.875C193.115 537.247 205.784 567.333 232.156 578.094C255.951 587.803 282.735 578.417 295.656 557.125C296.063 556.875 296.456 556.633 296.875 556.406C298.398 555.579 299.998 554.848 301.625 554.25C303.152 553.689 304.817 553.123 306.469 553.156C306.694 553.161 306.881 553.306 306.969 553.312C307.624 553.361 308.281 553.355 308.938 553.375C311.216 553.444 313.513 553.607 315.75 554.062C321.572 555.248 326.44 558.839 331.031 562.438C337.097 567.192 342.799 572.397 348.625 577.438C371.532 596.94 405.935 594.188 425.438 571.281C444.94 548.374 442.157 513.972 419.25 494.469C408.071 485.103 397.038 475.468 384.656 467.688C375.678 462.046 366.01 457.445 355.938 454.125C340.877 449.162 324.967 447.323 309.156 447.844Z" fill="#000120" stroke="none"/>
</g>
<path d="M467.751 505.97L477.561 496.112L436.868 537.006L451.983 521.816L461.154 512.6" fill="#353942" fill-rule="nonzero" opacity="0.998754" stroke="#000120" stroke-linecap="butt" stroke-linejoin="round" stroke-width="102.591" vectornator:layerName="Curve 63"/>
<path d="M472.854 500.842L477.561 496.112" fill="#353942" fill-rule="nonzero" opacity="0.998754" stroke="#000120" stroke-linecap="butt" stroke-linejoin="round" stroke-width="102.591" vectornator:layerName="Line 5"/>
<path d="M444.818 585.965L453.064 577.825L467.016 564.049L444.818 585.965Z" fill="#353942" fill-rule="nonzero" opacity="0.998754" stroke="#000120" stroke-linecap="butt" stroke-linejoin="round" stroke-width="102.591" vectornator:layerName="Line 6"/>
<path d="M425.208 376.656" fill="#353942" fill-rule="nonzero" opacity="1" stroke="#000120" stroke-linecap="butt" stroke-linejoin="round" stroke-width="102.591" vectornator:layerName="Curve 64"/>
<path d="M417.097 373.599" fill="#353942" fill-rule="nonzero" opacity="1" stroke="#000120" stroke-linecap="butt" stroke-linejoin="round" stroke-width="102.591" vectornator:layerName="Curve 65"/>
<path d="M514.36 516.559C514.36 510.812 519.042 506.153 524.817 506.153C530.592 506.153 535.274 510.812 535.274 516.559C535.274 522.306 530.592 526.965 524.817 526.965C519.042 526.965 514.36 522.306 514.36 516.559Z" fill="#e0f7fd" fill-rule="nonzero" opacity="1" stroke="#000120" stroke-linecap="butt" stroke-linejoin="round" stroke-width="102.591" vectornator:layerName="Oval 21"/>
<path d="M489.4 476.511C489.4 473.638 491.67 471.309 494.471 471.309C497.272 471.309 499.543 473.638 499.543 476.511C499.543 479.385 497.272 481.714 494.471 481.714C491.67 481.714 489.4 479.385 489.4 476.511Z" fill="#e0f7fd" fill-rule="nonzero" opacity="1" stroke="#000120" stroke-linecap="butt" stroke-linejoin="round" stroke-width="102.591" vectornator:layerName="Oval 22"/>
<path d="M492.752 425.391C492.752 420.101 497.061 415.812 502.376 415.812C507.691 415.812 512 420.101 512 425.391C512 430.681 507.691 434.969 502.376 434.969C497.061 434.969 492.752 430.681 492.752 425.391Z" fill="#353942" fill-rule="nonzero" opacity="1" stroke="#000120" stroke-linecap="butt" stroke-linejoin="round" stroke-width="102.591" vectornator:layerName="Oval 23"/>
<path d="M608.255 646.809C608.255 641.562 612.564 637.309 617.879 637.309C623.194 637.309 627.503 641.562 627.503 646.809C627.503 652.055 623.194 656.309 617.879 656.309C612.564 656.309 608.255 652.055 608.255 646.809Z" fill="#353942" fill-rule="nonzero" opacity="1" stroke="#000120" stroke-linecap="butt" stroke-linejoin="round" stroke-width="102.591" vectornator:layerName="Oval 24"/>
<path d="M629.039 618.487C629.039 613.047 633.348 608.638 638.663 608.638C643.978 608.638 648.287 613.047 648.287 618.487C648.287 623.926 643.978 628.336 638.663 628.336C633.348 628.336 629.039 623.926 629.039 618.487Z" fill="#353942" fill-rule="nonzero" opacity="1" stroke="#000120" stroke-linecap="butt" stroke-linejoin="round" stroke-width="102.591" vectornator:layerName="Oval 25"/>
<g opacity="1" vectornator:layerName="Curve 66">
<path d="M487.415 329.179C477.089 325.455 538.667 181.921 549.908 302.113" fill="#353942" fill-rule="nonzero" stroke="none"/>
<path d="M531.562 200.562C529.431 200.542 527.312 200.585 525.188 200.75C523.244 200.901 521.296 201.168 519.375 201.5C515.753 202.125 512.341 203.07 508.875 204.281C504.572 205.785 500.449 207.773 496.531 210.094C475.633 222.474 462.458 244.391 452.281 265.75C449.995 270.548 447.827 275.412 445.844 280.344C442.943 287.559 440.349 294.938 438.281 302.438C436.361 309.403 434.891 316.57 434.688 323.812C434.422 333.251 436.154 342.763 440.406 351.25C441.175 352.785 441.989 354.299 442.906 355.75C443.996 357.474 445.134 359.156 446.406 360.75C447.768 362.456 449.217 364.102 450.781 365.625C452.489 367.288 454.269 368.898 456.188 370.312C458.314 371.88 460.593 373.231 462.875 374.562C464.06 375.254 465.36 375.744 466.594 376.344C491.345 387.271 520.013 377.154 532.688 353.781C539.705 356.125 547.317 357.101 555.156 356.344C585.102 353.451 607.017 326.82 604.125 296.875C602.221 278.638 599.277 259.687 591.531 242.906C586.917 232.91 580.525 223.688 572.188 216.438C565.086 210.262 556.679 205.603 547.625 203C542.428 201.506 536.975 200.615 531.562 200.562ZM508.25 282C509.38 282.553 510.54 283.02 511.625 283.656C511.729 283.718 511.833 283.782 511.938 283.844C510.735 283.195 509.521 282.561 508.25 282ZM526.969 296.375C527.08 296.512 527.202 296.643 527.312 296.781C527.472 296.98 527.595 297.204 527.75 297.406C527.483 297.066 527.245 296.709 526.969 296.375ZM554.875 298.75C554.9 298.946 554.306 299.477 554.219 299.562C553.835 299.94 553.417 300.262 553 300.594C553.349 300.173 553.71 299.733 554.094 299.344C554.219 299.217 554.526 298.934 554.688 298.812C554.742 298.771 554.866 298.682 554.875 298.75Z" fill="#000120" stroke="none"/>
</g>
<g opacity="1" vectornator:layerName="Curve 67">
<path d="M681.962 383.737C691.075 358.148 738.488 293.014 757.836 300.532C792.731 314.092 780.209 408.847 778.622 439.087" fill="#353942" fill-rule="nonzero" stroke="none"/>
<path d="M755.156 247.219C750.315 247.169 745.479 247.727 740.75 248.75C717.281 253.826 698.766 270.745 683.281 288.156C680.032 291.81 676.896 295.555 673.844 299.375C670.065 304.104 666.445 308.942 662.938 313.875C658.218 320.514 653.683 327.329 649.438 334.281C643.264 344.392 637.602 354.883 633.531 366.031C623.76 392.786 637.527 422.416 664.281 432.188C687.943 440.829 713.789 431.038 726.219 410.156C725.543 418.803 724.73 427.436 724.219 436.094C722.572 466.133 745.617 491.822 775.656 493.469C805.696 495.115 831.353 472.102 833 442.062C833.586 430.172 834.722 418.326 835.375 406.438C836.643 383.367 836.894 360.122 833.688 337.188C830.709 315.886 824.401 294.312 811.094 277.062C805.396 269.677 798.498 263.239 790.625 258.219C785.023 254.647 778.93 251.729 772.562 249.812C766.923 248.115 761.041 247.279 755.156 247.219ZM770.75 348.562C770.778 348.551 770.865 348.541 770.844 348.562C770.701 348.708 770.416 348.775 770.219 348.906C770.287 348.861 770.338 348.794 770.406 348.75C770.538 348.666 770.62 348.619 770.75 348.562Z" fill="#000120" stroke="none"/>
</g>
<path d="M488.648 324.785C480.752 311.515 514.428 255.936 529.808 254.235C543.077 252.768 543.51 303.195 545.19 310.886" fill="#c6ccd5" fill-rule="nonzero" opacity="1" stroke="none" vectornator:layerName="Curve 44"/>
<path d="M329.669 671.537C281.01 650.842 247.333 606.176 247.333 554.411C247.333 482.941 311.53 425.002 390.721 425.002C451.783 425.002 503.93 459.45 524.606 507.986" fill="#a9e0ff" fill-opacity="0.47" fill-rule="nonzero" opacity="1" stroke="#353942" stroke-linecap="butt" stroke-linejoin="round" stroke-width="25" vectornator:layerName="Oval 4"/>
<path d="M672.057 312.798C389.718 176.317 44.3001 852.632 266.094 756.839C324.785 731.49 415.18 698.323 504.409 733.912C622.586 781.046 715.452 727.741 781.701 651.614C839.367 585.35 881.328 413.959 672.057 312.798Z" fill="#c6ccd5" fill-rule="nonzero" opacity="1" stroke="none" vectornator:layerName="Curve 45"/>
<path d="M672.057 312.798C374.889 212.631 45.4027 852.023 269.144 760.87C488.421 671.537 512 770.547 654.684 743.999C793.447 718.182 949.283 406.244 672.057 312.798Z" fill="none" opacity="1" stroke="#565d6c" stroke-linecap="butt" stroke-linejoin="round" stroke-width="20" vectornator:layerName="Curve 46"/>
<path d="M495.112 547.654C495.112 516.092 514.671 490.506 538.798 490.506C562.925 490.506 582.484 516.092 582.484 547.654C582.484 579.216 562.925 604.802 538.798 604.802C514.671 604.802 495.112 579.216 495.112 547.654Z" fill="#000120" fill-rule="nonzero" opacity="1" stroke="#000120" stroke-linecap="butt" stroke-linejoin="round" stroke-width="20" vectornator:layerName="Oval 5"/>
<path d="M708.292 366.745C706.076 365.631 703.363 363.919 703.754 361.442C709.135 327.314 730.322 290.158 750.043 295.585C816.667 313.92 795.6 430.015 752.733 458.451" fill="#c6ccd5" fill-rule="nonzero" opacity="1" stroke="none" vectornator:layerName="Curve 47"/>
<path d="M648.287 516.708C652.441 529.376 654.684 542.877 654.684 556.888C654.684 590.856 641.503 621.825 619.852 645.204C595.077 671.957 559.212 688.773 519.315 688.773C444.553 688.773 383.946 629.726 383.946 556.888C383.946 484.049 444.553 425.002 519.315 425.002C579.696 425.002 630.843 463.518 648.287 516.708" fill="#a9e0ff" fill-opacity="0.473259" fill-rule="nonzero" opacity="1" stroke="none" vectornator:layerName="Oval 6"/>
<g opacity="1" vectornator:layerName="Curve 49">
<path d="M470.75 420.625C469.026 420.578 467.238 420.864 465.531 421.531C459.854 423.756 454.303 426.185 448.906 429.031C434.453 436.654 421.282 446.653 410.062 458.531C396.374 473.023 385.666 490.357 379 509.156C373.156 525.637 370.419 543.15 370.906 560.625C371.346 576.386 374.415 592.066 380 606.812C384.172 617.829 389.732 628.306 396.469 637.969C417.329 667.888 449.294 689.218 484.781 697.469C502.011 701.475 519.941 702.399 537.5 700.281C553.804 698.314 569.791 693.678 584.594 686.562C589.723 684.097 594.66 681.301 599.5 678.312C605.407 674.668 607.239 666.907 603.594 661C599.949 655.093 592.188 653.261 586.281 656.906C582.189 659.429 578.024 661.825 573.688 663.906C560.468 670.25 546.131 674.222 531.531 675.594C512.487 677.383 493.066 674.9 475.156 668.156C441.656 655.541 414.41 628.05 403.031 594C398.872 581.554 396.861 568.431 397.062 555.312C397.28 541.123 400.123 527.002 405.438 513.844C411.366 499.166 420.232 485.8 431.375 474.562C440.13 465.734 450.245 458.285 461.25 452.5C465.775 450.121 470.46 448.108 475.219 446.25C482.046 443.579 485.421 435.859 482.75 429.031C480.747 423.911 475.921 420.766 470.75 420.625Z" fill="#353942" stroke="none"/>
</g>
<g opacity="1" vectornator:layerName="Curve 48">
<path d="M534.312 413.375C528.484 413.822 523.571 418.318 522.812 424.344C521.946 431.23 526.832 437.508 533.719 438.375C537.768 438.889 541.788 439.49 545.781 440.344C554.432 442.194 562.889 445.018 570.938 448.688C594.3 459.339 614.054 477.68 626.594 500.062C630.331 506.733 633.269 513.766 635.719 521C638.084 527.939 645.623 531.647 652.562 529.281C659.502 526.916 663.209 519.377 660.844 512.438C656.709 500.383 651.249 488.877 644.188 478.25C626.866 452.182 600.914 432.313 571.562 421.625C560.332 417.535 548.691 414.917 536.844 413.438C535.983 413.329 535.145 413.311 534.312 413.375Z" fill="#353942" stroke="none"/>
</g>
<g opacity="1" vectornator:layerName="Oval 7">
<path d="M648.287 516.708C652.441 529.376 654.684 542.877 654.684 556.888C654.684 567.16 653.478 577.157 651.198 586.754" fill="#353942" fill-rule="nonzero" stroke="none"/>
<path d="M647 504.188C646.169 504.273 645.359 504.458 644.531 504.719C637.91 506.801 634.23 513.848 636.312 520.469C638.14 526.32 639.625 532.243 640.531 538.312C642.786 553.409 641.697 568.986 638.25 583.812C636.62 590.96 641.102 598.057 648.25 599.688C655.398 601.318 662.495 596.866 664.125 589.719C665.718 582.597 666.924 575.383 667.406 568.094C668.642 549.413 665.922 530.745 660.281 512.938C658.459 507.144 652.815 503.587 647 504.188Z" fill="#353942" stroke="none"/>
</g>
<g opacity="1" vectornator:layerName="Curve 50">
<path d="M312.094 487.75C306.245 487.736 300.379 488.02 294.625 489.125C284.305 491.107 274.292 495.106 265.219 500.375C255.054 506.278 244.596 514.438 240 525.594C237.378 532.02 240.48 539.378 246.906 542C253.333 544.622 260.659 541.52 263.281 535.094C264.458 532.142 267.175 529.807 269.562 527.844C274.338 523.917 279.858 520.829 285.531 518.406C290.269 516.383 295.241 514.83 300.344 514.062C304.771 513.396 309.316 513.379 313.781 513.562C323.615 513.968 333.298 516.187 342.062 520.75C348.458 524.08 354.26 528.374 359.844 532.906C365.102 537.174 370.196 541.662 375.344 546.062C380.926 550.815 389.31 550.145 394.062 544.562C398.815 538.98 398.145 530.596 392.562 525.844C379.36 514.647 366.332 502.771 350.375 495.594C338.33 490.176 325.254 487.782 312.094 487.75Z" fill="#353942" stroke="none"/>
</g>
<path d="M467.751 505.97L477.561 496.112L436.868 537.006L451.983 521.816L461.154 512.6" fill="none" opacity="0.998754" stroke="#e0f7fd" stroke-linecap="butt" stroke-linejoin="round" stroke-width="20" vectornator:layerName="Curve 51"/>
<path d="M472.854 500.842L477.561 496.112" fill="none" opacity="0.998754" stroke="#e0f7fd" stroke-linecap="butt" stroke-linejoin="round" stroke-width="20" vectornator:layerName="Line 3"/>
<path d="M444.818 585.965L453.064 577.825L467.016 564.049L444.818 585.965Z" fill="none" opacity="0.998754" stroke="#e0f7fd" stroke-linecap="butt" stroke-linejoin="round" stroke-width="20" vectornator:layerName="Line 4"/>
<path d="M425.208 376.656" fill="none" opacity="1" stroke="#565d6c" stroke-linecap="butt" stroke-linejoin="round" stroke-width="10" vectornator:layerName="Curve 52"/>
<path d="M417.097 373.599" fill="none" opacity="1" stroke="#565d6c" stroke-linecap="butt" stroke-linejoin="round" stroke-width="10" vectornator:layerName="Curve 53"/>
<path d="M514.36 516.559C514.36 510.812 519.042 506.153 524.817 506.153C530.592 506.153 535.274 510.812 535.274 516.559C535.274 522.306 530.592 526.965 524.817 526.965C519.042 526.965 514.36 522.306 514.36 516.559Z" fill="#e0f7fd" fill-rule="nonzero" opacity="1" stroke="#e0f7fd" stroke-linecap="butt" stroke-linejoin="round" stroke-width="7.81729" vectornator:layerName="Oval 13"/>
<path d="M489.4 476.511C489.4 473.638 491.67 471.309 494.471 471.309C497.272 471.309 499.543 473.638 499.543 476.511C499.543 479.385 497.272 481.714 494.471 481.714C491.67 481.714 489.4 479.385 489.4 476.511Z" fill="#e0f7fd" fill-rule="nonzero" opacity="1" stroke="#e0f7fd" stroke-linecap="butt" stroke-linejoin="round" stroke-width="7.81729" vectornator:layerName="Oval 14"/>
<path d="M492.752 425.391C492.752 420.101 497.061 415.812 502.376 415.812C507.691 415.812 512 420.101 512 425.391C512 430.681 507.691 434.969 502.376 434.969C497.061 434.969 492.752 430.681 492.752 425.391Z" fill="#353942" fill-rule="nonzero" opacity="1" stroke="#353942" stroke-linecap="butt" stroke-linejoin="round" stroke-width="7.81729" vectornator:layerName="Oval 15"/>
<path d="M608.255 646.809C608.255 641.562 612.564 637.309 617.879 637.309C623.194 637.309 627.503 641.562 627.503 646.809C627.503 652.055 623.194 656.309 617.879 656.309C612.564 656.309 608.255 652.055 608.255 646.809Z" fill="#353942" fill-rule="nonzero" opacity="1" stroke="#353942" stroke-linecap="butt" stroke-linejoin="round" stroke-width="7.81729" vectornator:layerName="Oval 16"/>
<path d="M629.039 618.487C629.039 613.047 633.348 608.638 638.663 608.638C643.978 608.638 648.287 613.047 648.287 618.487C648.287 623.926 643.978 628.336 638.663 628.336C633.348 628.336 629.039 623.926 629.039 618.487Z" fill="#353942" fill-rule="nonzero" opacity="1" stroke="#353942" stroke-linecap="butt" stroke-linejoin="round" stroke-width="7.81729" vectornator:layerName="Oval 12"/>
<g opacity="1" vectornator:layerName="Curve 54">
<path d="M528.5 243.844C526.024 244.035 523.619 244.676 521.344 245.656C518.178 247.02 515.314 249.029 512.719 251.281C505.435 257.604 499.95 265.917 495.188 274.219C489.647 283.877 484.96 294.076 481.219 304.562C480.494 306.594 479.79 308.626 479.156 310.688C478.719 312.108 478.313 313.562 477.938 315C476.086 322.096 474.159 331.944 481.094 337.062C481.796 337.581 482.557 337.998 483.344 338.375C488.423 340.618 494.382 338.33 496.625 333.25C497.848 330.479 497.6 327.511 496.406 324.969C496.425 324.815 496.443 324.67 496.469 324.5C496.642 323.365 496.883 322.24 497.156 321.125C497.849 318.296 498.725 315.498 499.688 312.75C502.568 304.528 506.173 296.522 510.344 288.875C512.677 284.598 515.201 280.406 518.031 276.438C519.382 274.543 520.811 272.689 522.344 270.938C523.923 269.133 525.631 267.392 527.594 266C528.093 265.646 528.605 265.3 529.156 265.031C529.314 264.954 529.509 264.879 529.688 264.812C529.77 264.877 529.846 264.937 529.875 264.969C530.214 265.333 530.505 265.743 530.781 266.156C531.731 267.576 532.464 269.168 533.094 270.75C535.024 275.601 536.17 280.751 537.094 285.875C538.124 291.59 538.795 297.346 539.344 303.125C539.908 308.963 545.1 313.251 550.938 312.688C556.775 312.124 561.033 306.932 560.469 301.094C559.474 290.962 558.152 280.794 555.406 270.969C552.308 259.883 546.26 246.237 533.5 244.062C531.845 243.78 530.176 243.714 528.5 243.844Z" fill="#565d6c" stroke="none"/>
</g>
<g opacity="1" vectornator:layerName="Curve 55">
<path d="M755.938 289.688C745.939 288.975 736.077 295.752 728.812 301.906C722.464 307.285 716.739 313.391 711.312 319.688C704.466 327.632 698.116 336.017 692.219 344.688C687.865 351.088 683.712 357.628 679.969 364.406C677.14 369.529 674.541 374.778 672.531 380.281C670.626 385.497 673.284 391.283 678.5 393.188C683.716 395.092 689.501 392.403 691.406 387.188C693.621 381.124 696.766 375.426 700.031 369.875C703.537 363.916 707.344 358.108 711.344 352.469C716.4 345.339 721.785 338.405 727.562 331.844C733.132 325.518 739.082 319.287 745.969 314.375C747.815 313.058 749.753 311.83 751.844 310.938C752.593 310.618 753.503 310.278 754.344 310.25C755.237 310.661 756.103 311.069 756.906 311.656C760.181 314.05 762.347 317.712 764 321.344C765.371 324.356 766.404 327.523 767.25 330.719C768.524 335.535 769.378 340.466 770 345.406C771.142 354.481 771.503 363.641 771.531 372.781C771.572 385.994 770.885 399.169 769.938 412.344C769.311 421.06 768.518 429.774 768.031 438.5C767.71 444.356 772.175 449.367 778.031 449.688C783.887 450.008 788.898 445.512 789.219 439.656C789.741 429.958 790.666 420.284 791.312 410.594C792.696 389.856 793.508 368.907 791.406 348.188C790.453 338.788 788.899 329.39 785.906 320.406C784.004 314.695 781.491 309.114 778 304.188C775.805 301.09 773.237 298.259 770.25 295.906C767.28 293.567 763.854 291.566 760.219 290.469C758.79 290.038 757.366 289.789 755.938 289.688Z" fill="#565d6c" stroke="none"/>
</g>
</g>
</svg>
