<?xml version="1.0" encoding="UTF-8" standalone="no"?>
<!DOCTYPE svg PUBLIC "-//W3C//DTD SVG 1.1//EN" "http://www.w3.org/Graphics/SVG/1.1/DTD/svg11.dtd">
<!-- Created with Vectornator (http://vectornator.io/) -->
<svg height="100%" stroke-miterlimit="10" style="fill-rule:nonzero;clip-rule:evenodd;stroke-linecap:round;stroke-linejoin:round;" version="1.1" viewBox="0 0 1024 1024" width="100%" xml:space="preserve" xmlns="http://www.w3.org/2000/svg" xmlns:vectornator="http://vectornator.io" xmlns:xlink="http://www.w3.org/1999/xlink">
<defs/>
<g id="Layer-1" vectornator:layerName="Layer 1">
<path d="M488.648 324.785C480.752 311.515 514.428 255.936 529.808 254.235C543.077 252.768 543.51 303.195 545.19 310.886" fill="#c6ccd5" fill-rule="nonzero" opacity="1" stroke="none" vectornator:layerName="Curve 44"/>
<path d="M329.669 671.537C281.01 650.842 247.333 606.176 247.333 554.411C247.333 482.941 311.53 425.002 390.721 425.002C451.783 425.002 503.93 459.45 524.606 507.986" fill="#a9e0ff" fill-opacity="0.47" fill-rule="nonzero" opacity="1" stroke="#353942" stroke-linecap="butt" stroke-linejoin="round" stroke-width="25" vectornator:layerName="Oval 4"/>
<path d="M672.057 312.798C389.718 176.317 44.3001 852.632 266.094 756.839C324.785 731.49 415.18 698.323 504.409 733.912C622.586 781.046 715.452 727.741 781.701 651.614C839.367 585.35 881.328 413.959 672.057 312.798Z" fill="#c6ccd5" fill-rule="nonzero" opacity="1" stroke="none" vectornator:layerName="Curve 45"/>
<path d="M672.057 312.798C374.889 212.631 45.4027 852.023 269.144 760.87C488.421 671.537 512 770.547 654.684 743.999C793.447 718.182 949.283 406.244 672.057 312.798Z" fill="none" opacity="1" stroke="#565d6c" stroke-linecap="butt" stroke-linejoin="round" stroke-width="20" vectornator:layerName="Curve 46"/>
<path d="M495.112 547.654C495.112 516.092 514.671 490.506 538.798 490.506C562.925 490.506 582.484 516.092 582.484 547.654C582.484 579.216 562.925 604.802 538.798 604.802C514.671 604.802 495.112 579.216 495.112 547.654Z" fill="#000120" fill-rule="nonzero" opacity="1" stroke="#000120" stroke-linecap="butt" stroke-linejoin="round" stroke-width="20" vectornator:layerName="Oval 5"/>
<path d="M708.292 366.745C706.076 365.631 703.363 363.919 703.754 361.442C709.135 327.314 730.322 290.158 750.043 295.585C816.667 313.92 795.6 430.015 752.733 458.451" fill="#c6ccd5" fill-rule="nonzero" opacity="1" stroke="none" vectornator:layerName="Curve 47"/>
<path d="M648.287 516.708C652.441 529.376 654.684 542.877 654.684 556.888C654.684 590.856 641.503 621.825 619.852 645.204C595.077 671.957 559.212 688.773 519.315 688.773C444.553 688.773 383.946 629.726 383.946 556.888C383.946 484.049 444.553 425.002 519.315 425.002C579.696 425.002 630.843 463.518 648.287 516.708" fill="#a9e0ff" fill-opacity="0.473259" fill-rule="nonzero" opacity="1" stroke="none" vectornator:layerName="Oval 6"/>
<g opacity="1" vectornator:layerName="Curve 49">
<path d="M470.75 420.625C469.026 420.578 467.238 420.864 465.531 421.531C459.854 423.756 454.303 426.185 448.906 429.031C434.453 436.654 421.282 446.653 410.062 458.531C396.374 473.023 385.666 490.357 379 509.156C373.156 525.637 370.419 543.15 370.906 560.625C371.346 576.386 374.415 592.066 380 606.812C384.172 617.829 389.732 628.306 396.469 637.969C417.329 667.888 449.294 689.218 484.781 697.469C502.011 701.475 519.941 702.399 537.5 700.281C553.804 698.314 569.791 693.678 584.594 686.562C589.723 684.097 594.66 681.301 599.5 678.312C605.407 674.668 607.239 666.907 603.594 661C599.949 655.093 592.188 653.261 586.281 656.906C582.189 659.429 578.024 661.825 573.688 663.906C560.468 670.25 546.131 674.222 531.531 675.594C512.487 677.383 493.066 674.9 475.156 668.156C441.656 655.541 414.41 628.05 403.031 594C398.872 581.554 396.861 568.431 397.062 555.312C397.28 541.123 400.123 527.002 405.438 513.844C411.366 499.166 420.232 485.8 431.375 474.562C440.13 465.734 450.245 458.285 461.25 452.5C465.775 450.121 470.46 448.108 475.219 446.25C482.046 443.579 485.421 435.859 482.75 429.031C480.747 423.911 475.921 420.766 470.75 420.625Z" fill="#353942" stroke="none"/>
</g>
<g opacity="1" vectornator:layerName="Curve 48">
<path d="M534.312 413.375C528.484 413.822 523.571 418.318 522.812 424.344C521.946 431.23 526.832 437.508 533.719 438.375C537.768 438.889 541.788 439.49 545.781 440.344C554.432 442.194 562.889 445.018 570.938 448.688C594.3 459.339 614.054 477.68 626.594 500.062C630.331 506.733 633.269 513.766 635.719 521C638.084 527.939 645.623 531.647 652.562 529.281C659.502 526.916 663.209 519.377 660.844 512.438C656.709 500.383 651.249 488.877 644.188 478.25C626.866 452.182 600.914 432.313 571.562 421.625C560.332 417.535 548.691 414.917 536.844 413.438C535.983 413.329 535.145 413.311 534.312 413.375Z" fill="#353942" stroke="none"/>
</g>
<g opacity="1" vectornator:layerName="Oval 7">
<path d="M648.287 516.708C652.441 529.376 654.684 542.877 654.684 556.888C654.684 567.16 653.478 577.157 651.198 586.754" fill="#353942" fill-rule="nonzero" stroke="none"/>
<path d="M647 504.188C646.169 504.273 645.359 504.458 644.531 504.719C637.91 506.801 634.23 513.848 636.312 520.469C638.14 526.32 639.625 532.243 640.531 538.312C642.786 553.409 641.697 568.986 638.25 583.812C636.62 590.96 641.102 598.057 648.25 599.688C655.398 601.318 662.495 596.866 664.125 589.719C665.718 582.597 666.924 575.383 667.406 568.094C668.642 549.413 665.922 530.745 660.281 512.938C658.459 507.144 652.815 503.587 647 504.188Z" fill="#353942" stroke="none"/>
</g>
<g opacity="1" vectornator:layerName="Curve 50">
<path d="M312.094 487.75C306.245 487.736 300.379 488.02 294.625 489.125C284.305 491.107 274.292 495.106 265.219 500.375C255.054 506.278 244.596 514.438 240 525.594C237.378 532.02 240.48 539.378 246.906 542C253.333 544.622 260.659 541.52 263.281 535.094C264.458 532.142 267.175 529.807 269.562 527.844C274.338 523.917 279.858 520.829 285.531 518.406C290.269 516.383 295.241 514.83 300.344 514.062C304.771 513.396 309.316 513.379 313.781 513.562C323.615 513.968 333.298 516.187 342.062 520.75C348.458 524.08 354.26 528.374 359.844 532.906C365.102 537.174 370.196 541.662 375.344 546.062C380.926 550.815 389.31 550.145 394.062 544.562C398.815 538.98 398.145 530.596 392.562 525.844C379.36 514.647 366.332 502.771 350.375 495.594C338.33 490.176 325.254 487.782 312.094 487.75Z" fill="#353942" stroke="none"/>
</g>
<path d="M467.751 505.97L477.561 496.112L436.868 537.006L451.983 521.816L461.154 512.6" fill="none" opacity="0.998754" stroke="#e0f7fd" stroke-linecap="butt" stroke-linejoin="round" stroke-width="20" vectornator:layerName="Curve 51"/>
<path d="M472.854 500.842L477.561 496.112" fill="none" opacity="0.998754" stroke="#e0f7fd" stroke-linecap="butt" stroke-linejoin="round" stroke-width="20" vectornator:layerName="Line 3"/>
<path d="M444.818 585.965L453.064 577.825L467.016 564.049L444.818 585.965Z" fill="none" opacity="0.998754" stroke="#e0f7fd" stroke-linecap="butt" stroke-linejoin="round" stroke-width="20" vectornator:layerName="Line 4"/>
<path d="M425.208 376.656" fill="none" opacity="1" stroke="#565d6c" stroke-linecap="butt" stroke-linejoin="round" stroke-width="10" vectornator:layerName="Curve 52"/>
<path d="M417.097 373.599" fill="none" opacity="1" stroke="#565d6c" stroke-linecap="butt" stroke-linejoin="round" stroke-width="10" vectornator:layerName="Curve 53"/>
<path d="M514.36 516.559C514.36 510.812 519.042 506.153 524.817 506.153C530.592 506.153 535.274 510.812 535.274 516.559C535.274 522.306 530.592 526.965 524.817 526.965C519.042 526.965 514.36 522.306 514.36 516.559Z" fill="#e0f7fd" fill-rule="nonzero" opacity="1" stroke="#e0f7fd" stroke-linecap="butt" stroke-linejoin="round" stroke-width="7.81729" vectornator:layerName="Oval 13"/>
<path d="M489.4 476.511C489.4 473.638 491.67 471.309 494.471 471.309C497.272 471.309 499.543 473.638 499.543 476.511C499.543 479.385 497.272 481.714 494.471 481.714C491.67 481.714 489.4 479.385 489.4 476.511Z" fill="#e0f7fd" fill-rule="nonzero" opacity="1" stroke="#e0f7fd" stroke-linecap="butt" stroke-linejoin="round" stroke-width="7.81729" vectornator:layerName="Oval 14"/>
<path d="M492.752 425.391C492.752 420.101 497.061 415.812 502.376 415.812C507.691 415.812 512 420.101 512 425.391C512 430.681 507.691 434.969 502.376 434.969C497.061 434.969 492.752 430.681 492.752 425.391Z" fill="#353942" fill-rule="nonzero" opacity="1" stroke="#353942" stroke-linecap="butt" stroke-linejoin="round" stroke-width="7.81729" vectornator:layerName="Oval 15"/>
<path d="M608.255 646.809C608.255 641.562 612.564 637.309 617.879 637.309C623.194 637.309 627.503 641.562 627.503 646.809C627.503 652.055 623.194 656.309 617.879 656.309C612.564 656.309 608.255 652.055 608.255 646.809Z" fill="#353942" fill-rule="nonzero" opacity="1" stroke="#353942" stroke-linecap="butt" stroke-linejoin="round" stroke-width="7.81729" vectornator:layerName="Oval 16"/>
<path d="M629.039 618.487C629.039 613.047 633.348 608.638 638.663 608.638C643.978 608.638 648.287 613.047 648.287 618.487C648.287 623.926 643.978 628.336 638.663 628.336C633.348 628.336 629.039 623.926 629.039 618.487Z" fill="#353942" fill-rule="nonzero" opacity="1" stroke="#353942" stroke-linecap="butt" stroke-linejoin="round" stroke-width="7.81729" vectornator:layerName="Oval 12"/>
<g opacity="1" vectornator:layerName="Curve 54">
<path d="M528.5 243.844C526.024 244.035 523.619 244.676 521.344 245.656C518.178 247.02 515.314 249.029 512.719 251.281C505.435 257.604 499.95 265.917 495.188 274.219C489.647 283.877 484.96 294.076 481.219 304.562C480.494 306.594 479.79 308.626 479.156 310.688C478.719 312.108 478.313 313.562 477.938 315C476.086 322.096 474.159 331.944 481.094 337.062C481.796 337.581 482.557 337.998 483.344 338.375C488.423 340.618 494.382 338.33 496.625 333.25C497.848 330.479 497.6 327.511 496.406 324.969C496.425 324.815 496.443 324.67 496.469 324.5C496.642 323.365 496.883 322.24 497.156 321.125C497.849 318.296 498.725 315.498 499.688 312.75C502.568 304.528 506.173 296.522 510.344 288.875C512.677 284.598 515.201 280.406 518.031 276.438C519.382 274.543 520.811 272.689 522.344 270.938C523.923 269.133 525.631 267.392 527.594 266C528.093 265.646 528.605 265.3 529.156 265.031C529.314 264.954 529.509 264.879 529.688 264.812C529.77 264.877 529.846 264.937 529.875 264.969C530.214 265.333 530.505 265.743 530.781 266.156C531.731 267.576 532.464 269.168 533.094 270.75C535.024 275.601 536.17 280.751 537.094 285.875C538.124 291.59 538.795 297.346 539.344 303.125C539.908 308.963 545.1 313.251 550.938 312.688C556.775 312.124 561.033 306.932 560.469 301.094C559.474 290.962 558.152 280.794 555.406 270.969C552.308 259.883 546.26 246.237 533.5 244.062C531.845 243.78 530.176 243.714 528.5 243.844Z" fill="#565d6c" stroke="none"/>
</g>
<g opacity="1" vectornator:layerName="Curve 55">
<path d="M755.938 289.688C745.939 288.975 736.077 295.752 728.812 301.906C722.464 307.285 716.739 313.391 711.312 319.688C704.466 327.632 698.116 336.017 692.219 344.688C687.865 351.088 683.712 357.628 679.969 364.406C677.14 369.529 674.541 374.778 672.531 380.281C670.626 385.497 673.284 391.283 678.5 393.188C683.716 395.092 689.501 392.403 691.406 387.188C693.621 381.124 696.766 375.426 700.031 369.875C703.537 363.916 707.344 358.108 711.344 352.469C716.4 345.339 721.785 338.405 727.562 331.844C733.132 325.518 739.082 319.287 745.969 314.375C747.815 313.058 749.753 311.83 751.844 310.938C752.593 310.618 753.503 310.278 754.344 310.25C755.237 310.661 756.103 311.069 756.906 311.656C760.181 314.05 762.347 317.712 764 321.344C765.371 324.356 766.404 327.523 767.25 330.719C768.524 335.535 769.378 340.466 770 345.406C771.142 354.481 771.503 363.641 771.531 372.781C771.572 385.994 770.885 399.169 769.938 412.344C769.311 421.06 768.518 429.774 768.031 438.5C767.71 444.356 772.175 449.367 778.031 449.688C783.887 450.008 788.898 445.512 789.219 439.656C789.741 429.958 790.666 420.284 791.312 410.594C792.696 389.856 793.508 368.907 791.406 348.188C790.453 338.788 788.899 329.39 785.906 320.406C784.004 314.695 781.491 309.114 778 304.188C775.805 301.09 773.237 298.259 770.25 295.906C767.28 293.567 763.854 291.566 760.219 290.469C758.79 290.038 757.366 289.789 755.938 289.688Z" fill="#565d6c" stroke="none"/>
</g>
</g>
</svg>
